<?xml version="1.0" encoding="UTF-8"?> <svg xmlns="http://www.w3.org/2000/svg" xmlns:xlink="http://www.w3.org/1999/xlink" width="584px" height="464px" viewBox="0 0 584 464" version="1.1"><title>headlands preparatory school logo square</title><g id="headlands-preparatory-school-logo-square" stroke="none" stroke-width="1" fill="none" fill-rule="evenodd"><path d="M63.2517,360.6445 C62.1487,361.0725 61.3917,361.8625 60.9807,363.0145 C60.5687,364.1665 60.3637,366.0085 60.3637,368.5425 L60.3637,418.6955 C60.3637,421.2295 60.5687,423.0725 60.9807,424.2245 C61.3917,425.3765 62.1487,426.1655 63.2517,426.5935 C64.3537,427.0215 66.1227,427.2845 68.5587,427.3835 L68.5587,429.4075 C65.7607,429.2095 61.4497,429.1105 55.6257,429.1105 C50.2277,429.1105 45.9497,429.2095 42.7907,429.4075 L42.7907,427.3835 C45.2257,427.2845 46.9947,427.0215 48.0977,426.5935 C49.1997,426.1655 49.9557,425.3765 50.3677,424.2245 C50.7787,423.0725 50.9847,421.2295 50.9847,418.6955 L50.9847,394.4085 L18.1087,394.4085 L18.1087,418.6955 C18.1087,421.2295 18.3137,423.0725 18.7267,424.2245 C19.1377,425.3765 19.8937,426.1655 20.9967,426.5935 C22.0987,427.0215 23.8677,427.2845 26.3037,427.3835 L26.3037,429.4075 C23.2097,429.2095 18.9317,429.1105 13.4687,429.1105 C7.6767,429.1105 3.3657,429.2095 0.5357,429.4075 L0.5357,427.3835 C2.9707,427.2845 4.7397,427.0215 5.8427,426.5935 C6.9447,426.1655 7.7017,425.3765 8.1127,424.2245 C8.5237,423.0725 8.7307,421.2295 8.7307,418.6955 L8.7307,368.5425 C8.7307,366.0085 8.5237,364.1665 8.1127,363.0145 C7.7017,361.8625 6.9447,361.0725 5.8427,360.6445 C4.7397,360.2175 2.9707,359.9535 0.5357,359.8545 L0.5357,357.8315 C3.3327,358.0285 7.6447,358.1265 13.4687,358.1265 C18.9317,358.1265 23.2097,358.0285 26.3037,357.8315 L26.3037,359.8545 C23.8677,359.9535 22.0987,360.2175 20.9967,360.6445 C19.8937,361.0725 19.1377,361.8625 18.7267,363.0145 C18.3137,364.1665 18.1087,366.0085 18.1087,368.5425 L18.1087,392.3845 L50.9847,392.3845 L50.9847,368.5425 C50.9847,366.0085 50.7787,364.1665 50.3677,363.0145 C49.9557,361.8625 49.1997,361.0725 48.0977,360.6445 C46.9947,360.2175 45.2257,359.9535 42.7907,359.8545 L42.7907,357.8315 C45.9497,358.0285 50.2277,358.1265 55.6257,358.1265 C61.4167,358.1265 65.7277,358.0285 68.5587,357.8315 L68.5587,359.8545 C66.1227,359.9535 64.3537,360.2175 63.2517,360.6445" id="Fill-1" fill="#14422B"></path><path d="M128.8303,416.4741 C128.8303,420.2921 129.0603,424.6031 129.5213,429.4071 C124.9473,429.2101 117.2303,429.1111 106.3703,429.1111 C93.4373,429.1111 83.6633,429.2101 77.0483,429.4071 L77.0483,427.3831 C79.4833,427.2851 81.2523,427.0211 82.3553,426.5941 C83.4573,426.1661 84.2143,425.3761 84.6253,424.2241 C85.0373,423.0731 85.2433,421.2301 85.2433,418.6951 L85.2433,368.5421 C85.2433,366.0091 85.0373,364.1661 84.6253,363.0141 C84.2143,361.8621 83.4573,361.0731 82.3553,360.6441 C81.2523,360.2171 79.4833,359.9531 77.0483,359.8541 L77.0483,357.8311 C83.6633,358.0281 93.4373,358.1271 106.3703,358.1271 C116.2753,358.1271 123.3183,358.0281 127.4973,357.8311 C127.0363,362.2411 126.8063,366.2231 126.8063,369.7771 C126.8063,372.4101 126.9053,374.4991 127.1023,376.0461 L124.7823,376.0461 C124.2883,371.6691 123.6723,368.4111 122.9313,366.2721 C122.1913,364.1331 120.9403,362.5781 119.1803,361.6071 C117.4193,360.6371 114.7623,360.1511 111.2073,360.1511 L102.8163,360.1511 C100.3803,360.1511 98.6113,360.3481 97.5093,360.7431 C96.4063,361.1381 95.6503,361.9031 95.2393,363.0381 C94.8273,364.1741 94.6223,366.0091 94.6223,368.5421 L94.6223,392.3851 L101.3353,392.3851 C104.7243,392.3851 106.9783,391.3731 108.0983,389.3491 C109.2163,387.3251 109.9073,385.2601 110.1713,383.1541 C110.4343,381.0481 110.6153,379.6821 110.7143,379.0571 L113.0343,379.0571 C112.8033,382.3811 112.6883,385.5571 112.6883,388.5841 L112.7383,393.4211 C112.7383,396.8451 112.9353,401.6331 113.3303,407.7861 L111.0103,407.7861 C110.9443,407.3261 110.7553,405.6971 110.4423,402.8991 C110.1293,400.1021 109.2163,397.9881 107.7033,396.5561 C106.1893,395.1241 104.0663,394.4091 101.3353,394.4091 L94.6223,394.4091 L94.6223,418.6951 C94.6223,421.2301 94.8273,423.0641 95.2393,424.1991 C95.6503,425.3351 96.4063,426.1001 97.5093,426.4951 C98.6113,426.8901 100.3803,427.0871 102.8163,427.0871 L110.2203,427.0871 C114.4333,427.0871 117.6323,426.5281 119.8213,425.4091 C122.0103,424.2901 123.5893,422.4961 124.5603,420.0281 C125.5313,417.5601 126.2793,413.9401 126.8063,409.1681 L129.1263,409.1681 C128.9293,410.9781 128.8303,413.4131 128.8303,416.4741" id="Fill-3" fill="#14422B"></path><path d="M162.6443,370.1221 L151.0433,400.2831 L173.9483,400.2831 L162.6443,370.1221 Z M198.7283,427.3831 L198.7283,429.4071 C195.9643,429.2101 192.3433,429.1111 187.8683,429.1111 C182.1093,429.1111 177.7983,429.2101 174.9353,429.4071 L174.9353,427.3831 C177.5023,427.2851 179.3363,426.9721 180.4393,426.4451 C181.5413,425.9191 182.0933,424.9811 182.0933,423.6321 C182.0933,422.4801 181.6983,420.9001 180.9083,418.8931 L174.6883,402.3071 L150.3033,402.3071 L146.1573,413.0181 C144.8073,416.4421 144.1333,419.2061 144.1333,421.3111 C144.1333,423.4511 144.8493,424.9811 146.2803,425.9021 C147.7113,426.8241 149.9243,427.3181 152.9193,427.3831 L152.9193,429.4071 C149.0693,429.2101 145.1863,429.1111 141.2693,429.1111 C138.2423,429.1111 135.7243,429.2101 133.7173,429.4071 L133.7173,427.3831 C137.0743,426.6261 139.7233,423.6981 141.6653,418.5971 L165.4573,357.3371 L167.0863,357.3371 L191.7193,420.9171 C193.3643,425.0971 195.7003,427.2521 198.7283,427.3831 L198.7283,427.3831 Z" id="Fill-5" fill="#14422B"></path><path d="M218.4241,424.3477 C218.8191,425.5497 219.5511,426.3887 220.6211,426.8657 C221.6901,427.3427 223.2941,427.5807 225.4341,427.5807 C232.6081,427.5807 238.2351,426.2817 242.3161,423.6807 C246.3961,421.0817 249.2681,417.2887 250.9301,412.3027 C252.5911,407.3177 253.4231,400.9577 253.4231,393.2237 C253.4231,385.4577 252.5171,379.1307 250.7081,374.2437 C248.8971,369.3567 245.9441,365.7037 241.8471,363.2857 C237.7501,360.8667 232.2461,359.6577 225.3351,359.6577 C223.2291,359.6577 221.6491,359.8967 220.5961,360.3727 C219.5431,360.8507 218.8191,361.6987 218.4241,362.9147 C218.0291,364.1337 217.8321,365.9437 217.8321,368.3457 L217.8321,418.8927 C217.8321,421.3287 218.0291,423.1467 218.4241,424.3477 M210.1311,358.1767 L212.5991,358.1267 C221.8801,357.9297 226.9641,357.8307 227.8521,357.8307 C239.7651,357.8307 248.6921,360.8097 254.6321,366.7657 C260.5711,372.7227 263.5421,381.4097 263.5421,392.8287 C263.5421,400.1677 262.1021,406.5937 259.2231,412.1057 C256.3421,417.6187 252.1551,421.8797 246.6601,424.8907 C241.1641,427.9017 234.5981,429.4077 226.9641,429.4077 C226.0421,429.4077 223.8451,429.3577 220.3741,429.2597 C216.9021,429.1607 214.3761,429.1107 212.7971,429.1107 C207.2681,429.1107 203.0891,429.2097 200.2581,429.4077 L200.2581,427.3837 C202.6941,427.2847 204.4621,427.0217 205.5651,426.5937 C206.6671,426.1657 207.4241,425.3767 207.8361,424.2237 C208.2471,423.0727 208.4531,421.2297 208.4531,418.6957 L208.4531,368.5427 C208.4531,366.0087 208.2471,364.1667 207.8361,363.0147 C207.4241,361.8627 206.6671,361.0727 205.5651,360.6447 C204.4621,360.2177 202.6941,359.9537 200.2581,359.8547 L200.2581,357.8307 C203.8781,358.0617 207.1691,358.1767 210.1311,358.1767" id="Fill-7" fill="#14422B"></path><path d="M292.9377,360.6445 C291.8347,361.0725 291.0787,361.8625 290.6667,363.0145 C290.2547,364.1665 290.0497,366.0085 290.0497,368.5425 L290.0497,418.6955 C290.0497,421.2295 290.2547,423.0635 290.6667,424.1995 C291.0787,425.3345 291.8347,426.1005 292.9377,426.4945 C294.0397,426.8895 295.8087,427.0875 298.2447,427.0875 L305.6487,427.0875 C309.8607,427.0875 313.0607,426.4945 315.2497,425.3105 C317.4377,424.1255 319.0177,422.2335 319.9887,419.6335 C320.9587,417.0345 321.7077,413.2165 322.2347,408.1815 L324.5547,408.1815 C324.3567,410.2875 324.2587,413.0515 324.2587,416.4745 C324.2587,420.2915 324.4887,424.6025 324.9497,429.4075 C320.3747,429.2095 312.6587,429.1105 301.7987,429.1105 C288.8657,429.1105 279.0917,429.2095 272.4767,429.4075 L272.4767,427.3835 C274.9117,427.2845 276.6807,427.0215 277.7837,426.5935 C278.8857,426.1655 279.6427,425.3765 280.0537,424.2245 C280.4647,423.0725 280.6707,421.2295 280.6707,418.6955 L280.6707,368.5425 C280.6707,366.0085 280.4647,364.1665 280.0537,363.0145 C279.6427,361.8625 278.8857,361.0725 277.7837,360.6445 C276.6807,360.2175 274.9117,359.9535 272.4767,359.8545 L272.4767,357.8315 C275.2737,358.0285 279.5847,358.1265 285.4097,358.1265 C290.8727,358.1265 295.1507,358.0285 298.2447,357.8315 L298.2447,359.8545 C295.8087,359.9535 294.0397,360.2175 292.9377,360.6445" id="Fill-9" fill="#14422B"></path><path d="M355.95,370.1221 L344.349,400.2831 L367.254,400.2831 L355.95,370.1221 Z M392.034,427.3831 L392.034,429.4071 C389.27,429.2101 385.649,429.1111 381.174,429.1111 C375.415,429.1111 371.104,429.2101 368.241,429.4071 L368.241,427.3831 C370.808,427.2851 372.642,426.9721 373.745,426.4451 C374.847,425.9191 375.399,424.9811 375.399,423.6321 C375.399,422.4801 375.004,420.9001 374.214,418.8931 L367.994,402.3071 L343.609,402.3071 L339.463,413.0181 C338.113,416.4421 337.439,419.2061 337.439,421.3111 C337.439,423.4511 338.155,424.9811 339.586,425.9021 C341.017,426.8241 343.23,427.3181 346.225,427.3831 L346.225,429.4071 C342.375,429.2101 338.492,429.1111 334.575,429.1111 C331.548,429.1111 329.03,429.2101 327.023,429.4071 L327.023,427.3831 C330.38,426.6261 333.029,423.6981 334.971,418.5971 L358.763,357.3371 L360.392,357.3371 L385.025,420.9171 C386.67,425.0971 389.006,427.2521 392.034,427.3831 L392.034,427.3831 Z" id="Fill-11" fill="#14422B"></path><path d="M451.8372,360.8667 C450.7022,361.4427 449.9202,362.3887 449.4922,363.7047 C449.0652,365.0217 448.8512,366.9797 448.8512,369.5787 L448.8512,429.9007 L446.5312,429.9007 L404.0782,364.2977 L404.0782,417.6587 C404.0782,420.2587 404.3082,422.2177 404.7702,423.5337 C405.2302,424.8497 406.0942,425.7957 407.3612,426.3717 C408.6282,426.9477 410.5942,427.2847 413.2602,427.3837 L413.2602,429.4077 C410.8582,429.2097 407.4182,429.1107 402.9432,429.1107 C398.9282,429.1107 395.8022,429.2097 393.5642,429.4077 L393.5642,427.3837 C395.9002,427.2847 397.6362,426.9477 398.7722,426.3717 C399.9072,425.7957 400.6892,424.8497 401.1172,423.5337 C401.5442,422.2177 401.7582,420.2587 401.7582,417.6587 L401.7582,368.5427 C401.7582,366.0087 401.5522,364.1667 401.1412,363.0137 C400.7302,361.8627 399.9732,361.0727 398.8712,360.6447 C397.7682,360.2177 395.9992,359.9537 393.5642,359.8547 L393.5642,357.8307 C395.7692,358.0287 398.8952,358.1267 402.9432,358.1267 C405.9702,358.1267 408.6032,358.0287 410.8412,357.8307 L446.5312,412.8217 L446.5312,369.5787 C446.5312,366.9797 446.3092,365.0217 445.8642,363.7047 C445.4202,362.3887 444.5562,361.4427 443.2732,360.8667 C441.9892,360.2917 440.0152,359.9537 437.3492,359.8547 L437.3492,357.8307 C439.7512,358.0287 443.1902,358.1267 447.6662,358.1267 C451.6812,358.1267 454.8072,358.0287 457.0452,357.8307 L457.0452,359.8547 C454.7082,359.9537 452.9732,360.2917 451.8372,360.8667" id="Fill-13" fill="#14422B"></path><path d="M483.1086,424.3477 C483.5036,425.5497 484.2356,426.3887 485.3056,426.8657 C486.3746,427.3427 487.9786,427.5807 490.1186,427.5807 C497.2926,427.5807 502.9196,426.2817 507.0006,423.6807 C511.0806,421.0817 513.9526,417.2887 515.6146,412.3027 C517.2756,407.3177 518.1076,400.9577 518.1076,393.2237 C518.1076,385.4577 517.2016,379.1307 515.3926,374.2437 C513.5816,369.3567 510.6286,365.7037 506.5316,363.2857 C502.4346,360.8667 496.9306,359.6577 490.0196,359.6577 C487.9136,359.6577 486.3336,359.8967 485.2806,360.3727 C484.2276,360.8507 483.5036,361.6987 483.1086,362.9147 C482.7136,364.1337 482.5166,365.9437 482.5166,368.3457 L482.5166,418.8927 C482.5166,421.3287 482.7136,423.1467 483.1086,424.3477 M474.8156,358.1767 L477.2836,358.1267 C486.5646,357.9297 491.6486,357.8307 492.5366,357.8307 C504.4496,357.8307 513.3766,360.8097 519.3166,366.7657 C525.2556,372.7227 528.2266,381.4097 528.2266,392.8287 C528.2266,400.1677 526.7866,406.5937 523.9076,412.1057 C521.0266,417.6187 516.8396,421.8797 511.3446,424.8907 C505.8486,427.9017 499.2826,429.4077 491.6486,429.4077 C490.7266,429.4077 488.5296,429.3577 485.0586,429.2597 C481.5866,429.1607 479.0606,429.1107 477.4816,429.1107 C471.9526,429.1107 467.7736,429.2097 464.9426,429.4077 L464.9426,427.3837 C467.3786,427.2847 469.1466,427.0217 470.2496,426.5937 C471.3516,426.1657 472.1086,425.3767 472.5206,424.2237 C472.9316,423.0727 473.1376,421.2297 473.1376,418.6957 L473.1376,368.5427 C473.1376,366.0087 472.9316,364.1667 472.5206,363.0147 C472.1086,361.8627 471.3516,361.0727 470.2496,360.6447 C469.1466,360.2177 467.3786,359.9537 464.9426,359.8547 L464.9426,357.8307 C468.5626,358.0617 471.8536,358.1767 474.8156,358.1767" id="Fill-15" fill="#14422B"></path><path d="M547.9226,422.4717 C550.8186,426.7007 555.2776,428.8147 561.2996,428.8147 C563.6036,428.8147 565.7506,428.3387 567.7416,427.3837 C569.7326,426.4297 571.3456,424.9397 572.5796,422.9157 C573.8136,420.8917 574.4306,418.3667 574.4306,415.3387 C574.4306,412.7397 573.7966,410.4107 572.5296,408.3537 C571.2626,406.2977 569.5436,404.4137 567.3716,402.7017 C565.1996,400.9917 562.3036,399.0487 558.6836,396.8767 C554.6686,394.4747 551.4436,392.3197 549.0086,390.4107 C546.5726,388.5027 544.5736,386.2227 543.0106,383.5737 C541.4476,380.9247 540.6666,377.8067 540.6666,374.2197 C540.6666,370.4027 541.5296,367.1777 543.2576,364.5447 C544.9856,361.9117 547.2886,359.9457 550.1686,358.6457 C553.0476,357.3457 556.2156,356.6957 559.6716,356.6957 C561.7446,356.6957 563.5286,356.8677 565.0266,357.2137 C566.5246,357.5597 567.7666,357.9877 568.7536,358.4967 C569.7406,359.0077 570.8276,359.6577 572.0116,360.4477 C573.5256,361.4017 574.6776,361.8787 575.4666,361.8787 C576.0916,361.8787 576.5696,361.5257 576.8986,360.8177 C577.2276,360.1097 577.4906,358.9837 577.6886,357.4357 L580.0086,357.4357 C579.6796,361.3847 579.5146,368.2637 579.5146,378.0697 L577.1946,378.0697 C576.9316,374.6147 576.1826,371.4227 574.9486,368.4927 C573.7146,365.5647 571.9046,363.1867 569.5186,361.3607 C567.1326,359.5337 564.1636,358.6207 560.6096,358.6207 C558.2396,358.6207 556.1166,359.1147 554.2406,360.1017 C552.3656,361.0887 550.9006,362.4717 549.8476,364.2477 C548.7946,366.0247 548.2686,368.0657 548.2686,370.3687 C548.2686,374.0217 549.3706,376.9677 551.5756,379.2047 C553.7796,381.4437 556.3556,383.4587 559.3006,385.2517 C562.2456,387.0457 564.2286,388.2557 565.2496,388.8807 C569.4946,391.5457 572.8506,393.8577 575.3186,395.8157 C577.7876,397.7737 579.7616,400.0447 581.2426,402.6277 C582.7236,405.2117 583.4646,408.2147 583.4646,411.6367 C583.4646,415.7837 582.5086,419.2967 580.6006,422.1757 C578.6926,425.0557 576.1166,427.2197 572.8756,428.6667 C569.6336,430.1147 566.0056,430.8387 561.9906,430.8387 C558.7656,430.8387 556.1166,430.5007 554.0436,429.8267 C551.9706,429.1527 550.0116,428.2397 548.1696,427.0877 C546.6556,426.1337 545.5046,425.6557 544.7146,425.6557 C544.0886,425.6557 543.6106,426.0097 543.2826,426.7167 C542.9536,427.4247 542.6906,428.5517 542.4926,430.0977 L540.1726,430.0977 C540.4356,426.4127 540.5676,418.3337 540.5676,405.8607 L542.8876,405.8607 C543.3486,412.7067 545.0266,418.2437 547.9226,422.4717" id="Fill-17" fill="#14422B"></path><path d="M6.1487,452.3223 L8.3687,452.3223 C10.5547,452.3223 12.1367,451.9693 13.1137,451.2633 C14.0897,450.5573 14.5787,449.4253 14.5787,447.8683 C14.5787,446.4653 14.1197,445.4213 13.2007,444.7343 C12.2817,444.0473 10.8497,443.7033 8.9057,443.7033 L6.1487,443.7033 L6.1487,452.3223 Z M17.1327,447.7523 C17.1327,449.8993 16.3997,451.5513 14.9347,452.7073 C13.4687,453.8633 11.3727,454.4413 8.6447,454.4413 L6.1487,454.4413 L6.1487,462.7833 L3.6827,462.7833 L3.6827,441.5713 L9.1817,441.5713 C14.4817,441.5713 17.1327,443.6313 17.1327,447.7523 L17.1327,447.7523 Z" id="Fill-19" fill="#DB5B33"></path><path d="M38.8967,451.8438 L42.2777,451.8438 C44.0187,451.8438 45.2957,451.4978 46.1077,450.8058 C46.9207,450.1148 47.3267,449.0768 47.3267,447.6938 C47.3267,446.2918 46.9137,445.2808 46.0857,444.6608 C45.2597,444.0428 43.9317,443.7328 42.1037,443.7328 L38.8967,443.7328 L38.8967,451.8438 Z M38.8967,453.9618 L38.8967,462.7838 L36.4307,462.7838 L36.4307,441.5708 L42.2487,441.5708 C44.8507,441.5708 46.7727,442.0698 48.0167,443.0658 C49.2587,444.0618 49.8807,445.5608 49.8807,447.5638 C49.8807,450.3688 48.4587,452.2638 45.6147,453.2508 L51.3757,462.7838 L48.4587,462.7838 L43.3227,453.9618 L38.8967,453.9618 Z" id="Fill-21" fill="#DB5B33"></path><polygon id="Fill-23" fill="#DB5B33" points="81.4822 462.7837 69.6572 462.7837 69.6572 441.5707 81.4822 441.5707 81.4822 443.7617 72.1232 443.7617 72.1232 450.5957 80.9162 450.5957 80.9162 452.7717 72.1232 452.7717 72.1232 460.5777 81.4822 460.5777"></polygon><path d="M103.5071,452.3223 L105.7271,452.3223 C107.9131,452.3223 109.4951,451.9693 110.4721,451.2633 C111.4481,450.5573 111.9371,449.4253 111.9371,447.8683 C111.9371,446.4653 111.4781,445.4213 110.5591,444.7343 C109.6401,444.0473 108.2081,443.7033 106.2641,443.7033 L103.5071,443.7033 L103.5071,452.3223 Z M114.4911,447.7523 C114.4911,449.8993 113.7581,451.5513 112.2931,452.7073 C110.8271,453.8633 108.7311,454.4413 106.0031,454.4413 L103.5071,454.4413 L103.5071,462.7833 L101.0411,462.7833 L101.0411,441.5713 L106.5401,441.5713 C111.8401,441.5713 114.4911,443.6313 114.4911,447.7523 L114.4911,447.7523 Z" id="Fill-25" fill="#DB5B33"></path><path d="M143.7131,453.8169 L141.2471,447.2439 C140.9271,446.4119 140.5981,445.3919 140.2601,444.1829 C140.0471,445.1109 139.7421,446.1319 139.3461,447.2439 L136.8501,453.8169 L143.7131,453.8169 Z M147.1231,462.7839 L144.4821,456.0369 L135.9801,456.0369 L133.3681,462.7839 L130.8721,462.7839 L139.2581,441.4839 L141.3341,441.4839 L149.6761,462.7839 L147.1231,462.7839 Z" id="Fill-27" fill="#DB5B33"></path><path d="M169.9172,451.8438 L173.2982,451.8438 C175.0392,451.8438 176.3162,451.4978 177.1282,450.8058 C177.9412,450.1148 178.3472,449.0768 178.3472,447.6938 C178.3472,446.2918 177.9342,445.2808 177.1062,444.6608 C176.2802,444.0428 174.9522,443.7328 173.1242,443.7328 L169.9172,443.7328 L169.9172,451.8438 Z M169.9172,453.9618 L169.9172,462.7838 L167.4512,462.7838 L167.4512,441.5708 L173.2692,441.5708 C175.8712,441.5708 177.7932,442.0698 179.0372,443.0658 C180.2792,444.0618 180.9012,445.5608 180.9012,447.5638 C180.9012,450.3688 179.4792,452.2638 176.6352,453.2508 L182.3962,462.7838 L179.4792,462.7838 L174.3432,453.9618 L169.9172,453.9618 Z" id="Fill-29" fill="#DB5B33"></path><path d="M210.6018,453.8169 L208.1358,447.2439 C207.8158,446.4119 207.4868,445.3919 207.1488,444.1829 C206.9358,445.1109 206.6308,446.1319 206.2348,447.2439 L203.7388,453.8169 L210.6018,453.8169 Z M214.0118,462.7839 L211.3708,456.0369 L202.8688,456.0369 L200.2568,462.7839 L197.7608,462.7839 L206.1468,441.4839 L208.2228,441.4839 L216.5648,462.7839 L214.0118,462.7839 Z" id="Fill-31" fill="#DB5B33"></path><polygon id="Fill-33" fill="#DB5B33" points="240.8689 462.7837 238.4019 462.7837 238.4019 443.7617 231.6839 443.7617 231.6839 441.5707 247.5869 441.5707 247.5869 443.7617 240.8689 443.7617"></polygon><path d="M267.1453,452.1484 C267.1453,455.0214 267.7573,457.2004 268.9803,458.6844 C270.2043,460.1694 271.9813,460.9124 274.3133,460.9124 C276.6633,460.9124 278.4383,460.1714 279.6383,458.6914 C280.8373,457.2114 281.4373,455.0304 281.4373,452.1484 C281.4373,449.2944 280.8393,447.1304 279.6453,445.6554 C278.4503,444.1804 276.6833,443.4424 274.3423,443.4424 C271.9913,443.4424 270.2043,444.1854 268.9803,445.6694 C267.7573,447.1544 267.1453,449.3144 267.1453,452.1484 M284.0493,452.1484 C284.0493,455.5434 283.1903,458.2134 281.4733,460.1574 C279.7563,462.1014 277.3693,463.0734 274.3133,463.0734 C271.1883,463.0734 268.7773,462.1184 267.0803,460.2084 C265.3823,458.2974 264.5333,455.6014 264.5333,452.1194 C264.5333,448.6664 265.3843,445.9884 267.0873,444.0884 C268.7903,442.1874 271.2083,441.2374 274.3423,441.2374 C277.3893,441.2374 279.7693,442.2044 281.4803,444.1394 C283.1923,446.0734 284.0493,448.7434 284.0493,452.1484" id="Fill-35" fill="#DB5B33"></path><path d="M306.1028,451.8438 L309.4838,451.8438 C311.2248,451.8438 312.5018,451.4978 313.3138,450.8058 C314.1268,450.1148 314.5328,449.0768 314.5328,447.6938 C314.5328,446.2918 314.1198,445.2808 313.2918,444.6608 C312.4658,444.0428 311.1378,443.7328 309.3098,443.7328 L306.1028,443.7328 L306.1028,451.8438 Z M306.1028,453.9618 L306.1028,462.7838 L303.6368,462.7838 L303.6368,441.5708 L309.4548,441.5708 C312.0568,441.5708 313.9788,442.0698 315.2228,443.0658 C316.4648,444.0618 317.0868,445.5608 317.0868,447.5638 C317.0868,450.3688 315.6648,452.2638 312.8208,453.2508 L318.5818,462.7838 L315.6648,462.7838 L310.5288,453.9618 L306.1028,453.9618 Z" id="Fill-37" fill="#DB5B33"></path><polygon id="Fill-39" fill="#DB5B33" points="342.2605 452.1772 347.9195 441.5712 350.5895 441.5712 343.5085 454.5562 343.5085 462.7832 341.0125 462.7832 341.0125 454.6732 333.9465 441.5712 336.6455 441.5712"></polygon><path d="M402.9104,457.1396 C402.9104,459.0066 402.2334,460.4626 400.8794,461.5066 C399.5244,462.5516 397.6864,463.0736 395.3654,463.0736 C392.8504,463.0736 390.9154,462.7496 389.5614,462.1016 L389.5614,459.7226 C390.4324,460.0896 391.3804,460.3796 392.4054,460.5926 C393.4314,460.8056 394.4464,460.9116 395.4524,460.9116 C397.0974,460.9116 398.3344,460.5996 399.1664,459.9756 C399.9984,459.3516 400.4144,458.4836 400.4144,457.3716 C400.4144,456.6366 400.2674,456.0346 399.9724,455.5656 C399.6774,455.0966 399.1834,454.6636 398.4924,454.2666 C397.8004,453.8696 396.7484,453.4206 395.3364,452.9176 C393.3634,452.2116 391.9534,451.3746 391.1074,450.4076 C390.2604,449.4396 389.8374,448.1776 389.8374,446.6196 C389.8374,444.9856 390.4514,443.6846 391.6804,442.7176 C392.9084,441.7496 394.5334,441.2656 396.5554,441.2656 C398.6634,441.2656 400.6034,441.6536 402.3734,442.4266 L401.6044,444.5746 C399.8534,443.8396 398.1514,443.4716 396.4974,443.4716 C395.1914,443.4716 394.1704,443.7526 393.4354,444.3126 C392.7004,444.8736 392.3324,445.6526 392.3324,446.6486 C392.3324,447.3846 392.4684,447.9866 392.7394,448.4556 C393.0104,448.9246 393.4674,449.3546 394.1104,449.7466 C394.7534,450.1386 395.7374,450.5716 397.0634,451.0456 C399.2874,451.8386 400.8184,452.6896 401.6554,453.5986 C402.4924,454.5086 402.9104,455.6886 402.9104,457.1396" id="Fill-41" fill="#DB5B33"></path><path d="M431.1892,443.4717 C428.8572,443.4717 427.0172,444.2477 425.6682,445.8007 C424.3182,447.3527 423.6442,449.4787 423.6442,452.1777 C423.6442,454.9537 424.2942,457.0987 425.5952,458.6127 C426.8972,460.1257 428.7512,460.8827 431.1602,460.8827 C432.6402,460.8827 434.3282,460.6177 436.2242,460.0847 L436.2242,462.2467 C434.7532,462.7987 432.9392,463.0737 430.7832,463.0737 C427.6582,463.0737 425.2472,462.1257 423.5492,460.2297 C421.8522,458.3347 421.0032,455.6397 421.0032,452.1487 C421.0032,449.9627 421.4122,448.0467 422.2292,446.4027 C423.0462,444.7587 424.2272,443.4917 425.7702,442.6007 C427.3132,441.7117 429.1282,441.2657 431.2182,441.2657 C433.4422,441.2657 435.3872,441.6727 437.0512,442.4847 L436.0062,444.6037 C434.4002,443.8487 432.7942,443.4717 431.1892,443.4717" id="Fill-43" fill="#DB5B33"></path><polygon id="Fill-45" fill="#DB5B33" points="471.8157 462.7837 469.3487 462.7837 469.3487 452.8017 458.1767 452.8017 458.1767 462.7837 455.7107 462.7837 455.7107 441.5707 458.1767 441.5707 458.1767 450.5957 469.3487 450.5957 469.3487 441.5707 471.8157 441.5707"></polygon><path d="M494.0007,452.1484 C494.0007,455.0214 494.6127,457.2004 495.8357,458.6844 C497.0597,460.1694 498.8367,460.9124 501.1687,460.9124 C503.5187,460.9124 505.2937,460.1714 506.4937,458.6914 C507.6927,457.2114 508.2927,455.0304 508.2927,452.1484 C508.2927,449.2944 507.6947,447.1304 506.5007,445.6554 C505.3057,444.1804 503.5387,443.4424 501.1977,443.4424 C498.8467,443.4424 497.0597,444.1854 495.8357,445.6694 C494.6127,447.1544 494.0007,449.3144 494.0007,452.1484 M510.9047,452.1484 C510.9047,455.5434 510.0457,458.2134 508.3287,460.1574 C506.6117,462.1014 504.2247,463.0734 501.1687,463.0734 C498.0437,463.0734 495.6327,462.1184 493.9357,460.2084 C492.2377,458.2974 491.3887,455.6014 491.3887,452.1194 C491.3887,448.6664 492.2397,445.9884 493.9427,444.0884 C495.6457,442.1874 498.0637,441.2374 501.1977,441.2374 C504.2447,441.2374 506.6247,442.2044 508.3357,444.1394 C510.0477,446.0734 510.9047,448.7434 510.9047,452.1484" id="Fill-47" fill="#DB5B33"></path><path d="M532.0007,452.1484 C532.0007,455.0214 532.6127,457.2004 533.8357,458.6844 C535.0597,460.1694 536.8367,460.9124 539.1687,460.9124 C541.5187,460.9124 543.2937,460.1714 544.4937,458.6914 C545.6927,457.2114 546.2927,455.0304 546.2927,452.1484 C546.2927,449.2944 545.6947,447.1304 544.5007,445.6554 C543.3057,444.1804 541.5387,443.4424 539.1977,443.4424 C536.8467,443.4424 535.0597,444.1854 533.8357,445.6694 C532.6127,447.1544 532.0007,449.3144 532.0007,452.1484 M548.9047,452.1484 C548.9047,455.5434 548.0457,458.2134 546.3287,460.1574 C544.6117,462.1014 542.2247,463.0734 539.1687,463.0734 C536.0437,463.0734 533.6327,462.1184 531.9357,460.2084 C530.2377,458.2974 529.3887,455.6014 529.3887,452.1194 C529.3887,448.6664 530.2397,445.9884 531.9427,444.0884 C533.6457,442.1874 536.0637,441.2374 539.1977,441.2374 C542.2447,441.2374 544.6247,442.2044 546.3357,444.1394 C548.0477,446.0734 548.9047,448.7434 548.9047,452.1484" id="Fill-49" fill="#DB5B33"></path><polygon id="Fill-51" fill="#DB5B33" points="568.4924 462.7837 568.4924 441.5707 570.9584 441.5707 570.9584 460.5497 580.3174 460.5497 580.3174 462.7837"></polygon><path d="M395,60.2184 L395,260.4764 C395,270.5894 395.392,277.9514 397.028,282.5374 C398.664,287.1484 400.054,290.2964 404.466,292.0064 C408.853,293.7164 417,294.7574 424,295.1544 L424,303.2354 C417,302.4414 396.552,302.0454 373.302,302.0454 C351.761,302.0454 335,302.4414 323,303.2354 L323,295.1544 C333,294.7574 340.281,293.7164 344.668,292.0064 C349.08,290.2964 351.495,287.1484 353.131,282.5374 C354.792,277.9514 355,270.5894 355,260.4764 L355,60.2184 C355,50.1054 355.017,42.7434 353.381,38.1574 C351.745,33.5474 348.651,30.3994 344.263,28.6884 C339.851,26.9784 333,25.9374 323,25.5404 L323,17.4604 C335,18.2534 351.761,18.6494 373.302,18.6494 C396.428,18.6494 417,18.2534 424,17.4604 L424,25.5404 C417,25.9374 408.628,26.9784 404.265,28.6884 C399.828,30.3994 397.959,33.5474 396.323,38.1574 C394.687,42.7434 395,50.1054 395,60.2184" id="Fill-53" fill="#DB5B33"></path><path d="M232,60.2184 L232,260.4764 C232,270.5894 232.516,277.9514 234.152,282.5374 C235.788,287.1484 238.616,290.2964 243.028,292.0064 C247.415,293.7164 254,294.7574 264,295.1544 L264,303.2354 C254,302.4414 236.052,302.0454 212.802,302.0454 C191.261,302.0454 175,302.4414 162,303.2354 L162,295.1544 C172,294.7574 178.405,293.7164 182.792,292.0064 C187.204,290.2964 189.057,287.1484 190.693,282.5374 C192.354,277.9514 192,270.5894 192,260.4764 L192,60.2184 C192,50.1054 192.141,42.7434 190.505,38.1574 C188.869,33.5474 186.713,30.3994 182.325,28.6884 C177.913,26.9784 172,25.9374 162,25.5404 L162,17.4604 C175,18.2534 191.261,18.6494 212.802,18.6494 C235.928,18.6494 254,18.2534 264,17.4604 L264,25.5404 C254,25.9374 247.252,26.9784 242.889,28.6884 C238.452,30.3994 235.771,33.5474 234.135,38.1574 C232.499,42.7434 232,50.1054 232,60.2184" id="Fill-55" fill="#DB5B33"></path><path d="M389.6968,82.0982 C389.6968,82.0982 374.5728,75.7632 361.4968,81.7722 C348.4198,87.7802 332.6598,108.8482 333.0238,117.7412 C333.9098,139.3482 337.2518,142.2042 338.9358,146.7702 C339.3458,147.8852 338.3878,149.0312 337.2108,148.8712 C311.9238,145.4272 312.4478,140.6112 298.0898,135.8252 C287.5388,132.3082 265.0918,127.2672 254.3198,122.6732 C245.5338,118.9272 220.1238,112.5242 213.8368,85.6842 C208.4938,62.8742 210.5488,51.5722 223.0848,25.8852 C228.7748,14.2242 241.9538,-7.5578 162.7148,4.4092 C83.4758,16.3752 28.3978,51.8002 26.4378,53.8112 C25.3308,54.9462 35.8308,52.1822 49.3238,48.0072 C40.1128,52.8952 29.0768,59.0432 25.0108,62.4922 C20.1578,66.6102 32.4168,63.4292 48.2388,57.9502 C38.2958,63.7222 29.0518,69.7882 32.8498,70.7082 C35.5738,71.3682 43.2678,69.0412 52.4988,65.5182 C46.6708,69.5162 41.8688,73.2722 43.7288,73.6802 C45.5028,74.0712 50.9268,72.5802 58.1958,69.9082 C55.1988,72.2622 53.4978,74.4002 55.0618,75.5382 C56.7068,76.7332 62.6198,74.8622 70.2928,71.5992 C67.9118,73.9792 66.7148,76.1252 69.7448,76.4102 C72.5878,76.6772 79.5828,73.8462 87.7198,69.9562 C85.3808,72.7292 83.8518,75.5482 85.9758,76.6822 C88.2858,77.9152 93.8488,75.4242 100.6348,71.4952 C98.7138,74.4352 97.6568,77.2732 100.3608,77.6692 C102.4738,77.9792 107.5328,75.4232 113.5348,71.6362 C111.1458,74.4722 109.4808,77.2342 110.8998,78.2722 C112.3728,79.3522 116.6858,77.9982 122.4738,74.9822 C122.6508,90.3612 125.4078,159.2272 160.0798,184.1022 C146.4808,192.5512 107.9068,216.8062 100.5148,224.5462 C96.4628,228.7902 98.3508,228.7052 102.9558,226.3392 C97.4458,231.9332 91.7018,238.7432 94.6288,240.2712 C96.1138,241.0462 97.3278,240.5472 99.1988,239.0162 C95.1118,244.6522 92.1008,249.9622 93.8528,251.5152 C96.4088,253.7782 96.2638,250.7552 105.6958,242.7112 C105.3168,244.4092 105.8548,245.7542 108.4368,245.8602 C114.8678,246.1212 128.9088,235.1832 157.5748,225.7092 C141.7128,238.0432 153.9508,242.3492 157.2628,242.8722 C158.0248,242.9922 159.5708,242.9182 161.7598,242.6292 C159.3278,244.7192 83.1418,338.8542 83.1418,338.8542 C94.8558,329.8122 147.0048,267.7402 151.9828,263.4372 C155.0988,260.7452 160.8308,256.7762 170.5458,248.9812 C177.6768,243.2602 185.5958,238.6132 193.9658,234.9382 C200.2438,232.1802 213.4968,227.8302 220.4128,224.3932 C254.3198,207.5432 255.0068,198.3312 280.0068,188.6372 C305.0068,178.9442 303.6588,181.7782 333.8458,174.8692 C364.0328,167.9572 375.7148,149.9362 374.5718,139.3312 C373.4288,128.7292 366.2108,123.7802 357.7968,120.2002 C356.6268,119.7022 356.2868,115.6242 361.0968,111.2652 C366.1088,106.7242 381.8248,106.8712 390.3578,103.5622 C395.9438,101.3962 396.5368,98.6812 397.1388,96.7812 C446.0338,83.2082 458.1708,74.9982 458.1708,74.9982 C451.2328,72.9992 389.6968,82.0982 389.6968,82.0982" id="Fill-57" fill="#14422B"></path></g></svg> 